<?xml version="1.0" encoding="UTF-8" standalone="no"?>
<svg
   width="800"
   height="400"
   version="1.1"
   id="svg53"
   sodipodi:docname="image1.svg"
   inkscape:version="1.2 (dc2aedaf03, 2022-05-15)"
   inkscape:export-filename="image1.svg"
   inkscape:export-xdpi="96"
   inkscape:export-ydpi="96"
   xmlns:inkscape="http://www.inkscape.org/namespaces/inkscape"
   xmlns:sodipodi="http://sodipodi.sourceforge.net/DTD/sodipodi-0.dtd"
   xmlns="http://www.w3.org/2000/svg"
   xmlns:svg="http://www.w3.org/2000/svg">
  <defs
     id="defs57">
    <rect
       x="18.673219"
       y="199.5086"
       width="768.55037"
       height="16.707617"
       id="rect7946" />
    <rect
       x="29.97543"
       y="196.0688"
       width="342.50613"
       height="17.199017"
       id="rect7843" />
  </defs>
  <sodipodi:namedview
     id="namedview55"
     pagecolor="#ffffff"
     bordercolor="#000000"
     borderopacity="0.25"
     inkscape:showpageshadow="2"
     inkscape:pageopacity="0.0"
     inkscape:pagecheckerboard="0"
     inkscape:deskcolor="#d1d1d1"
     showgrid="false"
     inkscape:zoom="11.313709"
     inkscape:cx="675.64053"
     inkscape:cy="210.18749"
     inkscape:window-width="1920"
     inkscape:window-height="1046"
     inkscape:window-x="-11"
     inkscape:window-y="-11"
     inkscape:window-maximized="1"
     inkscape:current-layer="svg53" />
  <g
     id="main">
    <g
       id="baseline"
       transform="matrix(2.2616006,0,0,1,-50.832739,1.965602)">
      <title
         id="title34">Layer 1</title>
      <g
         id="svg_53">
        <path
           style="fill:#000000;fill-opacity:1;stroke:#000000"
           d="M 30.46683,212.77641 H 371.99017"
           id="path5861" />
      </g>
    </g>
    <text
       xml:space="preserve"
       id="text7944"
       style="font-size:13.3333px;white-space:pre;fill:#000000;fill-opacity:1;stroke:#000000;shape-inside:url(#rect7946);-inkscape-font-specification:'Lucida Handwriting';font-family:'Lucida Handwriting';font-weight:normal;font-style:normal;font-stretch:normal;font-variant:normal"><tspan
         x="18.673828"
         y="210.83533"
         id="tspan9171">! &quot; # $ % &amp; ' ( ) * + , - . / 0 1 2 3 4 5 6 7 8 9 : ; &lt; = &gt; ? @ A B C D E F G H I J K L M N O P Q R S T U V W X Y Z </tspan><tspan
         x="18.673828"
         y="227.54431"
         id="tspan9175"><tspan
           dx="0 7.2460756 4.4986868 6.5885239 4.4986877 7.2460747 4.4986877 8.9973717 4.4986839 6.6666527 4.4986839 8.9973755 4.4986877 10.55336 4.4986801 8.7630005 4.4986877 7.6171646 4.4986877 10.514297 4.4986877 7.7994537 4.4986877 4.8177032 4.4986877 9.5182037 4.4986877 9.993454 4.4986877 5.9114532 4.4986725 3.8020782 4.4986877 8.645813 4.4986877 5.4166565 4.4986877 14.329376 4.4986877 10.755188 4.4986877 8.9387665 4.4986877 8.1510315 4.4986877 8.476532 4.4986877 7.2135315 4.4986877 5.7226257 4.4986877 5.859375 4.4986877 10.410126 4.4986877 7.5260315 4.4986877 11.165314 4.4986877 8.5742188 4.4986877 7.6692505 4.4986572 8.2877502 4.4986877 7.4674377 4.4986877 4.0169067 4.4986877"
           id="tspan9173">[ \ ] ^ _ ` a b c d e f g h i j k l m n o p q r s t u v w x y z { | }</tspan></tspan></text>
    <g
       id="g8076"
       style="fill:none">
      <path
         style="fill:none;fill-opacity:1;stroke:#ff0000"
         d="m 22.57371,201.10565 c 0,0 -0.241679,3.65607 -0.300273,3.94904 -0.05859,0.29297 -0.558593,2.97265 -0.425781,2.91797 0.132813,-0.0547 0.101563,0.63281 0.445313,0.67187 0.34375,0.0391 -1.511719,0.33203 -1.449219,0.29297 0.0625,-0.0391 0.558594,0.77344 0.519531,0.76172 -0.03906,-0.0117 -0.511719,1.77734 0.835938,1.63672 1.347656,-0.14063 1.445312,-0.21875 1.464843,-0.21094 0.01953,0.008 0.6875,-1.84766 -0.246093,-2.39453 -0.933594,-0.54688 0.652343,-0.14844 0.652343,-0.14844 0,0 -0.172313,-0.62082 -0.360138,-0.85836 -0.187825,-0.23755 0.911505,-3.62393 0.917029,-4.20398 0.0055,-0.58004 0.353554,-1.42526 0.23202,-1.8451 -0.121534,-0.41985 -0.36153,-1.64058 -2.285513,-0.56894 z"
         id="path8067" />
    </g>
    <g
       id="g8080"
       style="fill:none">
      <path
         style="fill:none;fill-opacity:1;stroke:#ff0000"
         d="m 30.206718,199.29363 c 2.298097,3.97747 1.922446,4.11005 2.298097,3.97747 0.37565,-0.13258 -0.397748,-3.38085 0.08839,-3.49134 0.486136,-0.11048 -2.386485,-0.48613 -2.386485,-0.48613 z"
         id="path8071" />
      <path
         style="fill:none;fill-opacity:1;stroke:#ff0000"
         d="m 33.035145,199.20524 c 1.834058,0.48613 1.325825,0.0884 1.657281,0.70711 0.331457,0.61871 -0.110485,3.49133 0.243068,3.20407 0.353554,-0.28726 0.53033,0.26517 -0.552427,0.11049 -1.082757,-0.15468 -1.347922,-4.02167 -1.347922,-4.02167 z"
         id="path8073" />
    </g>
    <g
       id="g8098"
       style="fill:none">
      <path
         style="fill:none;fill-opacity:1;stroke:#ff0000"
         d="m 44.125,201.09375 c 0,0 -3.28125,7.40625 -3.3125,9.375"
         id="path8086" />
      <path
         style="fill:none;fill-opacity:1;stroke:#ff0000"
         d="m 48.03125,201.65625 c 0,0 -6.4375,9.625 -4,9.59375"
         id="path8088" />
      <path
         style="fill:none;fill-opacity:1;stroke:#ff0000"
         d="m 40.40625,204.875 c 0,0 6.4375,-1 7.5625,-0.59375"
         id="path8090" />
      <path
         style="fill:none;fill-opacity:1;stroke:#ff0000"
         d="m 39.25,208 c 0,0 6.03125,0.0312 7.9375,-0.9375"
         id="path8092" />
    </g>
    <g
       id="g8218"
       style="fill:none">
      <path
         style="fill:none;fill-opacity:1;stroke:#ff0000"
         d="m 60.413436,201.87899 c 0,0 -3.977476,-1.41422 -4.993942,1.54679 -1.016466,2.96101 4.772971,3.44715 4.242641,5.21491 -0.530331,1.76777 -2.165515,1.98874 -3.226175,1.94455 -1.06066,-0.0442 -3.181981,-0.61872 -2.872621,-1.94455"
         id="path8110" />
      <path
         style="fill:none;fill-opacity:1;stroke:#ff0000"
         d="m 58.336309,199.62508 c 0,0 -2.253903,13.16987 -1.988737,12.9489"
         id="path8112" />
    </g>
    <path
       style="fill:none;fill-opacity:1;stroke:#ff0000"
       d="m 70.799066,202.98384 c 0,0 0.08839,4.59619 -2.828427,2.78423 -2.916815,-1.81196 1.325825,-3.93328 1.325825,-3.93328 l 0.83969,-0.26516 c 0,0 1.370019,1.90035 6.275572,-0.57453 4.905554,-2.47487 -12.065009,10.47402 -8.662058,11.00435"
       id="path8348" />
    <path
       style="fill:none;fill-opacity:1;stroke:#ff0000"
       d="m 73.185552,207.13809 c 0,0 3.668116,-0.13258 2.784233,1.5026 -0.883884,1.63519 -2.607457,2.82843 -3.137787,1.72358 -0.53033,-1.10486 0.353554,-3.22618 0.353554,-3.22618 z"
       id="path8350" />
    <g
       id="g8402">
      <path
         style="fill:none;fill-opacity:1;stroke:#ff0000"
         d="m 89.05126,201.52543 c 0,0 -1.723573,-1.32582 -3.270369,-0.44194 -1.546796,0.88388 -1.281631,3.18198 -1.281631,3.18198 0,0 0.928078,1.81196 2.916816,0.53033 1.988737,-1.28163 -6.584932,1.5468 -4.905554,3.84489 1.679379,2.2981 5.170719,3.35876 7.51301,-1.54679"
         id="path8352" />
      <path
         style="fill:none;fill-opacity:1;stroke:#ff0000"
         d="m 88.962872,205.14935 c 4.24264,0.22098 4.905553,-0.39774 4.905553,-0.39774 0,0 -0.53033,1.4584 -0.707107,1.81196 -0.176776,0.35355 -1.458407,0.61872 -2.077126,0.44194 -0.618718,-0.17678 -2.165514,4.19845 -1.458408,4.94975"
         id="path8360" />
    </g>
    <g
       id="g8405">
      <path
         style="fill:none;fill-opacity:1;stroke:#ff0000"
         d="m 98.90625,199.90625 c 0,0 0.15625,3.1875 0.9375,3.46875 0.78125,0.28125 1.21875,-0.1875 1.21875,-0.1875 0,0 0.1875,-3.3125 -0.0312,-3.53125 -0.21875,-0.21875 -1.78125,-0.8125 -2.125,0.25 z"
         id="path8368" />
    </g>
    <g
       id="g8409">
      <path
         style="fill:none;fill-opacity:1;stroke:#ff0000"
         d="m 114.28613,199.22734 c 0,0 -10.25305,7.77817 -3.27037,13.25825"
         id="path8370" />
      <path
         style="fill:none;fill-opacity:1;stroke:#ff0000"
         d="m 122.77141,199.84605 c 0,0 4.94975,6.71752 -3.53553,12.72793"
         id="path8372" />
    </g>
    <g
       id="g8414">
      <path
         style="fill:none;fill-opacity:1;stroke:#ff0000"
         d="m 132.4375,200.5 c 3.78125,4.15625 4.46875,4 4.46875,4"
         id="path8376" />
      <path
         style="fill:none;fill-opacity:1;stroke:#ff0000"
         d="m 135.15625,199.21875 c 0,0 -2.21875,5.3125 -0.96875,6.25"
         id="path8378" />
      <path
         style="fill:none;fill-opacity:1;stroke:#ff0000"
         d="m 132.1875,204.15625 c 0,0 4.53125,-4.75 4.90625,-2.59375"
         id="path8380" />
    </g>
    <g
       id="g8418">
      <path
         style="fill:none;fill-opacity:1;stroke:#ff0000"
         d="m 144.95689,203.11642 c 0,0 1.5026,2.69585 0.61872,7.24785"
         id="path8382" />
      <path
         style="fill:none;fill-opacity:1;stroke:#ff0000"
         d="m 142.08427,207.53584 c 0,0 6.54074,0.13258 7.29204,-1.19324"
         id="path8384" />
    </g>
    <g
       id="g8421">
      <path
         style="fill:none;fill-opacity:1;stroke:#ff0000"
         d="m 155.60769,209.392 c 0,0 3.7565,0.61871 0.17677,3.49133"
         id="path8386" />
    </g>
    <g
       id="g8424">
      <path
         style="fill:none;fill-opacity:1;stroke:#ff0000"
         d="m 166.17009,207.75681 c 0.0442,-0.26516 2.69585,0.0442 3.66812,-1.76777"
         id="path8388" />
    </g>
    <g
       id="g8427">
      <path
         style="fill:none;fill-opacity:1;stroke:#ff0000"
         d="m 175.71603,208.95005 c 0,0 3.53554,-0.64081 2.3202,1.98874 -1.21534,2.62955 -3.51344,-3.07149 -2.3202,-1.98874 z"
         id="path8394" />
    </g>
    <g
       id="g8430">
      <path
         style="fill:none;fill-opacity:1;stroke:#ff0000"
         d="m 191.625,199.3125 c 0,0 -8.3125,11.125 -6.5625,13.5625"
         id="path8396" />
    </g>
    <g
       id="g8433">
      <path
         style="fill:none;fill-opacity:1;stroke:#ff0000"
         d="m 199.71347,201.34866 c 0,0 -5.21491,1.98873 -4.552,6.98268 0.66291,4.99394 5.96621,0.88388 5.96621,0.88388 0,0 1.98874,-5.39169 0.61872,-7.02688 -1.37002,-1.63518 -1.10485,-0.79549 -2.03293,-0.83968 z"
         id="path8398" />
    </g>
    <g
       id="g8440">
      <path
         style="fill:none;fill-opacity:1;stroke:#ff0000"
         d="m 209.81184,201.37075 c 0,0 0.99437,1.43631 2.01083,0.88389 1.01647,-0.55243 2.96101,-1.98874 2.96101,-1.98874 0,0 -1.92244,9.41336 -3.60182,9.43545 -1.67938,0.0221 -2.58536,0.0442 -2.67375,-0.46403 -0.0884,-0.50824 0.0884,2.32019 0.81759,2.38648 0.72921,0.0663 4.06587,-0.48613 4.86136,-0.44194 0.7955,0.0442 1.25954,0.7513 1.25954,0.7513 0,0 0.30936,-2.51907 -0.55243,-2.49697 -0.86179,0.0221 -2.78423,-0.13258 -2.78423,-0.13258"
         id="path8435" />
    </g>
    <g
       id="g8443">
      <path
         style="fill:none;fill-opacity:1;stroke:#ff0000"
         d="m 223.18058,202.98384 c 0,0 0.92808,-3.09359 5.03813,-1.5468 4.11006,1.5468 -5.74524,8.79464 -5.74524,8.79464 0,0 4.41942,-1.67937 5.65685,-0.61871 1.23744,1.06066 1.32583,2.03293 1.32583,2.03293"
         id="path8437" />
    </g>
    <g
       id="g8462">
      <path
         style="fill:none;fill-opacity:1;stroke:#ff0000"
         d="m 238,202.1875 c 0,0 4.1875,-2.6875 4.3125,0.625 0.125,3.3125 -4.0625,3 -4.0625,3 0,0 2.9375,-0.5 3.6875,1.5 0.75,2 -1.75,3.3125 -2.5625,3.0625 -0.8125,-0.25 -3.75,0.25 -3.6875,-1.1875"
         id="path8445" />
    </g>
    <g
       id="g8466">
      <path
         style="fill:none;fill-opacity:1;stroke:#ff0000"
         d="m 252.50341,201.06139 c -2.62955,6.45235 -3.20408,6.27558 -3.20408,6.27558 0,0 7.07107,-0.88389 7.57931,-0.0663"
         id="path8449" />
      <path
         style="fill:none;fill-opacity:1;stroke:#ff0000"
         d="m 254.49215,201.81269 c 0,0 -1.61309,7.44672 -1.23744,8.92723"
         id="path8451" />
    </g>
    <g
       id="g8469">
      <path
         style="fill:none;fill-opacity:1;stroke:#ff0000"
         d="m 268.92155,201.08349 c 0,0 -2.69585,1.06066 -3.53554,0.30936 -0.83969,-0.7513 -0.7071,3.40295 -0.7071,3.40295 0,0 4.06586,-0.13258 4.06586,1.94454 0,2.07713 -0.44194,3.8007 -2.60746,4.28684 -2.16551,0.48614 -3.22617,-1.5468 -3.22617,-1.5468"
         id="path8457" />
    </g>
    <g
       id="g8472">
      <path
         style="fill:none;fill-opacity:1;stroke:#ff0000"
         d="m 283.10788,202.32093 c 0,0 -6.40816,-2.34229 -5.87783,4.86136 0.53033,7.20365 6.0988,2.07712 5.3475,0.97227 -0.7513,-1.10486 0.0442,-1.76777 -2.47488,-2.91682 -2.51906,-1.14905 -2.96101,1.45841 -2.96101,1.45841"
         id="path8459" />
    </g>
    <g
       id="g8477">
      <path
         style="fill:none;fill-opacity:1;stroke:#ff0000"
         d="m 291.25,201.1875 c 0,0 2.3125,0.75 5.6875,0.5 3.375,-0.25 -6.875,4.8125 -5.625,9.125"
         id="path8474" />
    </g>
    <g
       id="g8482">
      <path
         style="fill:none;fill-opacity:1;stroke:#ff0000"
         d="m 309.875,202.6875 c 0,0 -7.3125,4.875 -6.125,6.3125 1.1875,1.4375 1.875,2.0625 3.125,1.75 1.25,-0.3125 2.125,-1.375 2.5625,-2.8125 0.4375,-1.4375 -4.375,-5.125 -4.375,-5.125 0,0 1.1875,-1.875 2.375,-1.625 1.1875,0.25 2.5625,0.1875 2.4375,1.5 z"
         id="path8479" />
    </g>
    <g
       id="g8495">
      <path
         style="fill:none;fill-opacity:1;stroke:#ff0000"
         d="m 323,205.3125 c 0,0 -5.5625,3.5625 -5.625,-0.5625 -0.0625,-4.125 4.0625,-3.6875 4.0625,-3.6875 0,0 2.25,0.75 1.8125,2.125 -0.4375,1.375 -0.8125,9.5625 -5.9375,6.75"
         id="path8484" />
    </g>
    <g
       id="g8499">
      <path
         style="fill:none;fill-opacity:1;stroke:#ff0000"
         d="m 331.3125,202.875 c 2.5,0.25 1.75,-0.9375 2.375,0.375 0.625,1.3125 -0.26563,1.95312 -0.26563,1.95312 0,0 -1.57812,0.25 -1.76562,-0.0312 -0.1875,-0.28125 -0.40625,-1.21875 -0.17188,-1.5 0.23438,-0.28125 -0.17187,-0.79687 -0.17187,-0.79687 z"
         id="path8486" />
      <path
         style="fill:none;fill-opacity:1;stroke:#ff0000"
         d="m 329.9316,208.88376 c 0,0 1.5689,-0.26516 2.09923,-0.15468 0.53033,0.11049 0.66291,1.67938 0.39775,2.20971 -0.26517,0.53033 -1.5689,0.44194 -1.5689,0.44194 0,0 -0.83969,-0.7071 -0.59662,-1.65728 0.24307,-0.95017 -0.33146,-0.83969 -0.33146,-0.83969 z"
         id="path8488" />
    </g>
    <g
       id="g8503">
      <path
         style="fill:none;fill-opacity:1;stroke:#ff0000"
         d="m 339.71875,202.96875 c 2.28125,-0.125 1.125,-0.375 2.28125,-0.125 1.15625,0.25 0.28125,2.3125 0.28125,2.3125 0,0 -1.9375,0.4375 -2.0625,-0.125 -0.125,-0.5625 0,-2.03125 -0.5,-2.0625 z"
         id="path8490" />
      <path
         style="fill:none;fill-opacity:1;stroke:#ff0000"
         d="m 338.5,209.375 c 0.125,-0.0312 2.46875,-1.4375 2.875,-0.28125 0.40625,1.15625 -0.28125,4.3125 -2.03125,4.1875 -1.75,-0.125 -1.21875,-1.65625 -1.21875,-1.65625 l 0.96875,0.15625 c 0,0 0.71875,-0.4375 0.71875,-1.1875 0,-0.75 -1.3125,-1.21875 -1.3125,-1.21875 z"
         id="path8492" />
    </g>
    <g
       id="g8510">
      <path
         style="fill:none;fill-opacity:1;stroke:#ff0000"
         d="m 355.78125,203 c 0,0 -6.0625,3.375 -7.65625,3.53125 -1.59375,0.15625 6.375,2.4375 6.0625,3.625"
         id="path8507" />
    </g>
    <g
       id="g8524">
      <path
         style="fill:none;fill-opacity:1;stroke:#ff0000"
         d="m 361.9375,206.75 c 0,0 6.625,-0.5 7.25,-1.96875"
         id="path8514" />
      <path
         style="fill:none;fill-opacity:1;stroke:#ff0000"
         d="m 361.53125,208.34375 c 7.25,-1.09375 5.21875,-0.21875 7.25,-1.09375"
         id="path8516" />
    </g>
    <g
       id="g8529">
      <path
         style="fill:none;fill-opacity:1;stroke:#ff0000"
         d="m 376.375,203.09375 c 5.96875,3.6875 6.78125,3.40625 6.78125,3.40625 0,0 -7.62147,3.0239 -7.84199,4.52757"
         id="path8526" />
    </g>
    <g
       id="g8534">
      <path
         style="fill:none;fill-opacity:1;stroke:#ff0000"
         d="m 390.78125,202.65625 c 0,0 6.34375,-2.71875 4.34375,0 -2,2.71875 -4.375,5.15625 -3.5625,5.59375 0.8125,0.4375 -1.59375,0.78125 -1.59375,0.78125 0,0 1.40625,1.34375 1,1.78125 -0.40625,0.4375 1.65625,-0.15625 1.65625,-0.15625 0,0 0.8125,-1.96875 -0.84375,-2.625"
         id="path8531" />
    </g>
    <g
       id="g8539">
      <path
         style="fill:none;fill-opacity:1;stroke:#ff0000"
         d="m 409.03125,209.0625 c 0,0 -5.4375,5.53125 -8.28125,-0.0937 -2.84375,-5.625 5.84375,-9.03125 7.09375,-8.25 1.25,0.78125 7.15625,3.6875 1.75,6.9375 -5.40625,3.25 0.0625,-4.0625 -0.4375,-4.34375 -0.5,-0.28125 -5.3125,-0.0937 -5.53125,2.71875 -0.21875,2.8125 1.28125,2.53125 1.28125,2.53125 0,0 3.78125,-2.75 3.78125,-4.125"
         id="path8536" />
    </g>
    <g
       id="g8551">
      <path
         style="fill:none;fill-opacity:1;stroke:#ff0000"
         d="m 417.9443,210.71782 c 0,0 4.19845,-9.23658 4.68458,-9.81111 0.48614,-0.57452 1.94455,0.13259 1.94455,0.13259 0,0 -1.90035,6.09879 -0.53033,8.66205 1.37002,2.56327 1.94454,1.10486 1.94454,1.10486"
         id="path8541" />
      <path
         style="fill:none;fill-opacity:1;stroke:#ff0000"
         d="m 416.04395,207.0939 c 8.83884,-0.0442 8.97142,0.7071 8.97142,0.7071"
         id="path8547" />
    </g>
    <g
       id="g8559">
      <path
         style="fill:none;fill-opacity:1;stroke:#ff0000"
         d="m 431.51191,203.86772 c 0,0 5.17072,-3.53553 6.71752,-2.38648 1.54679,1.14905 -1.41422,4.11006 -2.25391,4.06586 -0.83969,-0.0442 4.24264,-0.44194 4.33103,1.76777 0.0884,2.20971 -3.62392,4.64039 -6.62912,3.53553"
         id="path8553" />
      <path
         style="fill:none;fill-opacity:1;stroke:#ff0000"
         d="m 434.73809,201.21607 c 0,0 -1.37002,8.79464 -1.23744,9.81111"
         id="path8555" />
    </g>
    <g
       id="g8564">
      <path
         style="fill:none;fill-opacity:1;stroke:#ff0000"
         d="m 454.71875,202.5625 c 0,0 0.1875,-2.4375 -3.53125,-1.15625 -3.71875,1.28125 -5.03125,7.28125 -3.15625,8.84375 1.875,1.5625 6.59375,-1.78125 6.59375,-1.78125"
         id="path8561" />
    </g>
    <g
       id="g8574">
      <path
         style="fill:none;fill-opacity:1;stroke:#ff0000"
         d="m 460.1875,202.875 c 10.09375,-3.25 9.71875,0.9375 9.71875,0.9375 0,0 0.75,7.1875 -7.71875,6.65625"
         id="path8566" />
      <path
         style="fill:none;fill-opacity:1;stroke:#ff0000"
         d="m 464.9375,200.59375 c -3.25,10.4375 -2.84375,10.09375 -2.84375,10.09375"
         id="path8570" />
    </g>
    <g
       id="g8584">
      <path
         style="fill:none;fill-opacity:1;stroke:#ff0000"
         d="m 476.125,202.5625 c 8.25,-1.03125 9.625,-2.53125 9.625,-2.53125"
         id="path8576" />
      <path
         style="fill:none;fill-opacity:1;stroke:#ff0000"
         d="m 476.6875,206 c 5.84375,-0.40625 7,-2.03125 7,-2.03125"
         id="path8578" />
      <path
         style="fill:none;fill-opacity:1;stroke:#ff0000"
         d="m 479.375,201.5 c -1.21875,9 -0.5625,8.9375 -0.5625,8.9375 0,0 3.59375,0.40625 4.40625,-0.65625"
         id="path8580" />
    </g>
    <g
       id="g8594">
      <path
         style="fill:none;fill-opacity:1;stroke:#ff0000"
         d="m 490.125,202.1875 c 8,-0.96875 8.71875,-2.125 8.71875,-2.125"
         id="path8586" />
      <path
         style="fill:none;fill-opacity:1;stroke:#ff0000"
         d="m 489.28125,206.84375 c 7.1875,-1.09375 7.5625,-1.9375 7.5625,-1.9375"
         id="path8588" />
      <path
         style="fill:none;fill-opacity:1;stroke:#ff0000"
         d="m 492.96875,200.9375 c 0,0 -3,11.84375 -2.15625,11.90625"
         id="path8590" />
    </g>
    <g
       id="g8602">
      <path
         style="fill:none;fill-opacity:1;stroke:#ff0000"
         d="m 510.37642,201.0393 c -8.86094,1.41421 -8.08754,6.27557 -8.08754,6.27557 0,0 0.22097,3.20408 1.90035,3.0273 1.67938,-0.17678 1.76777,-0.39775 3.60183,-1.03856 1.83405,-0.64082 2.01083,-3.15989 2.01083,-3.15989 0,0 -2.2318,-0.0884 -4.06586,0.7734"
         id="path8596" />
      <path
         style="fill:none;fill-opacity:1;stroke:#ff0000"
         d="m 509.93447,205.67968 c -2.276,6.93849 -3.24827,7.04898 -3.24827,7.04898"
         id="path8598" />
    </g>
    <g
       id="g8615">
      <path
         style="fill:none;fill-opacity:1;stroke:#ff0000"
         d="m 516.1875,200.3125 c 0,0 2.34375,2.21875 3,1.40625 0.65625,-0.8125 -1.6875,9.8125 -1.6875,9.8125"
         id="path8606" />
      <path
         style="fill:none;fill-opacity:1;stroke:#ff0000"
         d="m 525.125,199.9375 c -4.9375,10.4375 0.25,10.71875 0.25,10.71875"
         id="path8608" />
      <path
         style="fill:none;fill-opacity:1;stroke:#ff0000"
         d="m 515.25,206.21875 c 9.6875,-0.0937 10.65625,-1.59375 10.65625,-1.59375"
         id="path8610" />
    </g>
    <g
       id="g8636">
      <path
         style="fill:none;fill-opacity:1;stroke:#ff0000"
         d="m 532.96875,201.53125 c 5,-0.84375 5.78125,0.8125 5.78125,0.8125"
         id="path8617" />
      <path
         style="fill:none;fill-opacity:1;stroke:#ff0000"
         d="m 536.0625,200.84375 c -2.375,9.96875 -1.6875,9.8125 -1.6875,9.8125"
         id="path8625" />
      <path
         style="fill:none;fill-opacity:1;stroke:#ff0000"
         d="m 531.6875,210.34375 c 0,0 5.40625,-0.625 5.78125,0.125"
         id="path8627" />
    </g>
    <g
       id="g8648">
      <path
         style="fill:none;fill-opacity:1;stroke:#ff0000"
         d="m 544.9375,201.5625 c 5.875,-1.125 6.65625,1.25 6.65625,1.25"
         id="path8638" />
      <path
         style="fill:none;fill-opacity:1;stroke:#ff0000"
         d="m 548.86954,201.68011 c -0.81759,12.37437 -6.09879,11.71146 -6.09879,11.71146 0,0 -3.71232,-0.7513 -0.86179,-3.09359"
         id="path8644" />
    </g>
    <g
       id="g8656">
      <path
         style="fill:none;fill-opacity:1;stroke:#ff0000"
         d="m 554.96875,200.4375 c 3.5625,2.9375 4.375,0.40625 4.375,0.40625 0,0 -3.8125,8.5625 -3.125,9.96875"
         id="path8650" />
      <path
         style="fill:none;fill-opacity:1;stroke:#ff0000"
         d="m 563,200.9375 c 0,0 -3.71875,4.8125 -5.65625,5.0625 -1.9375,0.25 1.09375,0.15625 2.03125,1.03125 0.9375,0.875 3.03125,6.84375 5.75,2.96875"
         id="path8652" />
    </g>
    <g
       id="g8661">
      <path
         style="fill:none;fill-opacity:1;stroke:#ff0000"
         d="m 571.0625,200.25 0.90625,0.8125 c 0,0 -3.25,9.125 -1.1875,9.4375 2.0625,0.3125 5.6875,0.65625 5.96875,0.28125 0.28125,-0.375 0.9375,-2.0625 0.9375,-2.0625 0,0 -5.125,1.8125 -5.4375,0.5625 -0.3125,-1.25 1.6875,-8.6875 1.6875,-8.6875 0,0 0.25,-1.40625 -2.875,-0.34375 z"
         id="path8658" />
    </g>
    <g
       id="g8669">
      <path
         style="fill:none;fill-opacity:1;stroke:#ff0000"
         d="m 584.59375,210.90625 c -3.25,-2.25 0.59375,-9.59375 0.59375,-9.59375"
         id="path8663" />
      <path
         style="fill:none;fill-opacity:1;stroke:#ff0000"
         d="m 583.5625,200.15625 c 0,0 2.5,8.1875 3.75,8.4375 1.25,0.25 5.65625,-7.3125 5.65625,-7.3125 0,0 -2.4375,10.65625 -0.875,10.34375 1.5625,-0.3125 1.8125,-0.40625 1.8125,-0.40625"
         id="path8665" />
    </g>
    <g
       id="g8679">
      <path
         style="fill:none;fill-opacity:1;stroke:#ff0000"
         d="m 602,210.8125 c -2.34375,-0.34375 -0.125,-9.75 -0.125,-9.75"
         id="path8671" />
      <path
         style="fill:none;fill-opacity:1;stroke:#ff0000"
         d="m 599.03125,200.625 c 3.15625,-0.0937 4.75,4.75 4.75,4.75 0,0 1.4375,5.6875 2.4375,5.40625 1,-0.28125 3.46875,-7.6875 2.53125,-9.125 -0.9375,-1.4375 -1.59375,-0.4375 -1.59375,-0.4375"
         id="path8675" />
    </g>
    <g
       id="g8753">
      <path
         style="fill:none;fill-opacity:1;stroke:#ff0000"
         d="m 619.59375,206.46875 c -1.28125,-5.75 3.3125,-5.46875 4.03125,-4.03125 0.71875,1.4375 1.28125,3.875 -0.3125,5.71875 -1.59375,1.84375 -5.5625,4.625 -7.46875,0.21875 -1.90625,-4.40625 2.78125,-5.59375 2.78125,-5.59375"
         id="path8750" />
    </g>
    <g
       id="g8761">
      <path
         style="fill:none;fill-opacity:1;stroke:#ff0000"
         d="m 630.6875,203.34375 c 7.40625,-3.8125 8.21875,-0.8125 8.25,-0.28125 0.0312,0.53125 -0.40625,5.59375 -8.5,3.125"
         id="path8755" />
      <path
         style="fill:none;fill-opacity:1;stroke:#ff0000"
         d="m 633.8125,202.40625 c -2.6875,9.5 -1.21875,9.40625 -1.21875,9.40625"
         id="path8757" />
    </g>
    <g
       id="g8771">
      <path
         style="fill:none;fill-opacity:1;stroke:#ff0000"
         d="m 649.09375,204.0625 c 0.21875,-3.625 3.53125,-2.5 3.59375,-2.53125 0.0625,-0.0312 1.21875,0.46875 1.40625,1.21875 0.1875,0.75 0.15625,0.90625 0.125,1.75 -0.0312,0.84375 -2.0625,6.90625 -4.78125,6.125 -2.71875,-0.78125 -4.75,-3.78125 -4.09375,-5.96875 0.65625,-2.1875 3.6875,-2.0625 3.6875,-2.0625"
         id="path8765" />
      <path
         style="fill:none;fill-opacity:1;stroke:#ff0000"
         d="m 648.15625,208.5 c 4.28125,5.34375 6.75,4.59375 6.75,4.59375"
         id="path8767" />
    </g>
    <g
       id="g8782">
      <path
         style="fill:none;fill-opacity:1;stroke:#ff0000"
         d="m 659.9295,203.73514 c 1.32582,-2.78423 7.15946,-2.2318 7.15946,-2.2318 0,0 1.14904,-0.0442 1.34792,0.44194 0.19887,0.48613 1.43631,2.29809 -1.17115,3.11569 -2.60745,0.81759 -4.70668,1.14904 -4.70668,1.14904"
         id="path8773" />
      <path
         style="fill:none;fill-opacity:1;stroke:#ff0000"
         d="m 663.33245,201.81269 -1.5247,10.03208"
         id="path8775" />
      <path
         style="fill:none;fill-opacity:1;stroke:#ff0000"
         d="m 665.01183,206.18792 c 2.2981,5.17072 5.06023,3.13778 5.06023,3.13778"
         id="path8777" />
    </g>
    <g
       id="g8787">
      <path
         style="fill:none;fill-opacity:1;stroke:#ff0000"
         d="m 681.6875,201.75 c -2.75,-1.375 -4.5625,-0.25 -4.75,0.84375 -0.1875,1.09375 3.78125,4.8125 3.96875,5.59375 0.1875,0.78125 0.1875,2.3125 -1.125,2.5625 -1.3125,0.25 -3,0.96875 -4.46875,-1.875"
         id="path8784" />
    </g>
    <g
       id="g8805">
      <path
         style="fill:none;fill-opacity:1;stroke:#ff0000"
         d="m 688.0625,202.03125 c 7.71875,-0.53125 8.59375,-1.84375 8.59375,-1.84375"
         id="path8791" />
      <path
         style="fill:none;fill-opacity:1;stroke:#ff0000"
         d="m 691.96875,201.5 c -1.9375,9.25 -0.375,9.25 -0.375,9.25"
         id="path8793" />
      <g
         id="g8810">
        <path
           style="fill:none;fill-opacity:1;stroke:#ff0000"
           d="m 700.5,200.375 c 3.4375,2.25 4.28125,0.90625 4.28125,0.90625 0,0 -4.65625,8.8125 -2.25,9.03125 2.40625,0.21875 4.84375,-2.4375 4.84375,-2.4375 0,0 1.71875,-3.84375 2.125,-5.125 0.40625,-1.28125 -1.4375,6.0625 -1.15625,6.9375 0.28125,0.875 1.9375,1.1875 2.5625,0.25"
           id="path8807" />
      </g>
      <g
         id="g8815">
        <path
           style="fill:none;fill-opacity:1;stroke:#ff0000"
           d="m 717.34375,200.5 c 3.0625,8.78125 1.4375,10.375 1.4375,10.375 0,0 6.3125,-5.46875 6.25,-9.34375"
           id="path8812" />
      </g>
      <g
         id="g8822">
        <path
           style="fill:none;fill-opacity:1;stroke:#ff0000"
           d="m 730.53125,200.46875 c 2.5,9.15625 1.40625,10.15625 1.40625,10.15625 0,0 4.59375,-6.1875 4.90625,-8.125 0.3125,-1.9375 -1.5,6.90625 -0.0937,7.4375 1.40625,0.53125 2.71875,-0.75 2.71875,-0.75 0,0 1.21875,-1.15625 1.53125,-2.53125 0.3125,-1.375 0.75,-5.21875 -0.3125,-5.53125"
           id="path8819" />
      </g>
      <g
         id="g8833">
        <path
           style="fill:none;fill-opacity:1;stroke:#ff0000"
           d="m 749.03125,201.09375 c 2.75,10.84375 6.3125,8.90625 6.3125,8.90625"
           id="path8824" />
        <path
           style="fill:none;fill-opacity:1;stroke:#ff0000"
           d="M 754.84375,200.625 C 746.75,210.75 747.875,211.65625 747.875,211.65625"
           id="path8826" />
      </g>
      <g
         id="g8838">
        <path
           style="fill:none;fill-opacity:1;stroke:#ff0000"
           d="m 761.20045,200.86252 c 4.15425,5.17072 2.2539,9.89949 2.2539,9.89949 0,0 0.53033,-4.24264 1.28163,-4.99394 0.7513,-0.7513 3.66812,-2.34229 3.71231,-3.7565"
           id="path8835" />
      </g>
      <g
         id="g8845">
        <path
           style="fill:none;fill-opacity:1;stroke:#ff0000"
           d="m 774.32612,200.90671 c 4.59619,1.90035 6.27557,0.17678 6.27557,0.17678 0,0 -8.08753,8.61786 -7.38043,9.14819 0.70711,0.53033 5.08233,-0.48613 6.14299,0.26517 1.06066,0.7513 1.10486,1.06066 1.10486,1.06066"
           id="path8842" />
      </g>
    </g>
  </g>
</svg>
