<svg xmlns="http://www.w3.org/2000/svg" width="187.5" viewBox="0 0 187.5 187.5" height="187.5" version="1.0"><defs><clipPath id="a"><path d="M 34.394531 33.628906 L 152.894531 33.628906 L 152.894531 153.628906 L 34.394531 153.628906 Z M 34.394531 33.628906"/></clipPath></defs><g clip-path="url(#a)"><path d="M 34.4375 33.625 L 143.234375 33.625 L 146.121094 63.800781 L 142.054688 63.800781 C 141.554688 57.84375 140.34375 53.300781 138.417969 50.171875 C 136.492188 47.046875 133.855469 44.746094 130.503906 43.269531 C 127.152344 41.796875 121.835938 41.085938 114.5625 41.144531 L 65.035156 41.144531 L 109.214844 88.050781 L 58.9375 137.164062 L 114.027344 137.164062 C 124.011719 137.164062 131.644531 135.835938 136.921875 133.183594 C 142.199219 130.527344 146.15625 124.980469 148.796875 116.542969 L 152.859375 117.339844 L 146.65625 153.625 L 34.4375 153.625 L 34.4375 150.4375 L 90.28125 95.925781 L 34.4375 36.808594 Z M 34.4375 33.625"/></g></svg>